<?xml version="1.0" encoding="UTF-8"?>
<svg id="Layer_2" data-name="Layer 2" xmlns="http://www.w3.org/2000/svg" viewBox="0 0 733.89 274.53">
  <defs>
    <style>
      .cls-1 {
        font-family: Volkhov-Regular, Volkhov;
        font-size: 150px;
      }

      .cls-1, .cls-2 {
        fill: #1976d2;
      }

      .cls-3 {
        fill: #f49521;
      }

      .cls-3, .cls-4, .cls-2 {
        stroke-width: 0px;
      }

      .cls-4 {
        fill: #fb8c00;
      }

      .cls-5 {
        letter-spacing: 0em;
      }

      .cls-6 {
        letter-spacing: 0em;
      }

      .cls-7 {
        fill: #666;
        font-family: Volkhov-Italic, Volkhov;
        font-size: 37.67px;
        font-style: italic;
      }

      .cls-8 {
        letter-spacing: 0em;
      }
    </style>
  </defs>
  <g id="Layer_1-2" data-name="Layer 1">
    <g id="sample1">
      <g id="blue">
        <path class="cls-2" d="M448.03,82.54c-12.25,17.74-34.17,29.66-59.29,29.92-38.8.4-70.54-26.94-71.3-61.44-.14-6.19.74-12.19,2.5-17.87-.1,1.34-.15,2.69-.13,4.06.25,25.47,20.09,47.78,47.51,53.64,4.91,1.05,10.72,2.15,16,2.1,4.94-.04,10.26-.47,15.03-1.24,5.06-.81,9.97-2.64,14.33-4.58,7.49-3.33,14.11-8.59,19.48-14.11,3-3.08,6.9-5.33,11.03-3.57h0s.52.22.52.22c5.43,2.31,7.46,8.31,4.31,12.87Z"/>
        <ellipse class="cls-4" cx="320.42" cy="30.82" rx="1.53" ry="1.36"/>
      </g>
      <g>
        <text class="cls-1" transform="translate(0 225.77)"><tspan class="cls-8" x="0" y="0">H</tspan><tspan x="122.85" y="0">api</tspan></text>
        <text class="cls-1" transform="translate(367.89 226.21)"><tspan class="cls-5" x="0" y="0">A</tspan><tspan x="106.65" y="0">pps</tspan></text>
      </g>
      <g>
        <path class="cls-3" d="M255.78,70.21c4.35-.78,7.54-2.16,9.59-4.14s3.08-5.8,3.08-11.46V21.95c0-7.37,1.81-12.72,5.42-16.04,3.61-3.32,10.35-4.96,20.21-4.91l.15,3.37c-3.42.73-6.05,1.6-7.91,2.6-1.86,1-3.21,2.22-4.07,3.66-.85,1.44-1.35,3.16-1.5,5.16-.15,2-.22,4.39-.22,7.18v24.32c0,7.37-.98,12.82-2.93,16.33-1.95,3.52-5.47,6.06-10.55,7.62v.44c5.08,1.56,8.59,4.1,10.55,7.62,1.95,3.52,2.93,8.96,2.93,16.33v24.32c0,2.78.07,5.17.22,7.18.15,2,.65,3.72,1.5,5.16.85,1.44,2.21,2.66,4.07,3.66,1.86,1,4.44,1.87,7.76,2.6l.15,3.37c-9.96.05-16.75-1.59-20.36-4.91-3.61-3.32-5.42-8.67-5.42-16.04v-32.67c0-5.66-1.03-9.48-3.08-11.46s-5.2-3.36-9.45-4.14l-.15-2.49Z"/>
        <path class="cls-3" d="M511.03,71.71c-4.25.78-7.4,2.16-9.45,4.14s-3.08,5.8-3.08,11.46v32.67c0,7.37-1.81,12.72-5.42,16.04-3.61,3.32-10.35,4.96-20.21,4.91l-.15-3.37c3.42-.73,6.05-1.6,7.91-2.6,1.86-1,3.21-2.22,4.07-3.66.85-1.44,1.35-3.16,1.5-5.16.15-2,.22-4.39.22-7.18v-24.32c0-7.37.98-12.82,2.93-16.33,1.95-3.52,5.47-6.05,10.55-7.62v-.44c-5.08-1.56-8.59-4.1-10.55-7.62-1.95-3.52-2.93-8.96-2.93-16.33v-24.32c0-2.78-.07-5.17-.22-7.18-.15-2-.65-3.72-1.5-5.16-.86-1.44-2.21-2.66-4.07-3.66-1.86-1-4.44-1.87-7.76-2.6l-.15-3.37c9.96-.05,16.75,1.59,20.36,4.91,3.61,3.32,5.42,8.67,5.42,16.04v32.67c0,5.67,1.03,9.48,3.08,11.46s5.25,3.36,9.59,4.14l-.15,2.49Z"/>
      </g>
      <text class="cls-7" transform="translate(254.78 262.93)"><tspan x="0" y="0">S</tspan><tspan class="cls-6" x="20.76" y="0">o</tspan><tspan x="40.69" y="0">ftware Lab</tspan></text>
    </g>
  </g>
</svg>