<svg width="324" height="256" viewBox="0 0 324 256" fill="none" xmlns="http://www.w3.org/2000/svg">
<path d="M321.796 144.764L322.049 145.1L321.628 145.563C316.604 150.783 312.465 156.087 309.21 161.476C307.947 163.524 307.049 164.983 306.515 165.853L290.856 190.9V207.991L296.96 213.59H276.459L282.521 207.991V190.9L272.418 175.367L270.229 171.873C268.237 168.758 266.595 166.485 265.304 165.054C264.041 163.622 262.161 161.925 259.663 159.96L259.2 159.581H280.458L275.238 165.012L289.256 186.143L290.603 183.997L278.101 165.012L282.521 160.802L283.405 161.476L279.574 165.012L291.235 182.986L300.664 168.127C303.386 163.805 304.747 160.577 304.747 158.445C304.747 156.649 303.555 154.6 301.169 152.299C309.336 150.334 316.043 147.907 321.291 145.016L321.796 144.764ZM323.69 147.289V149.015L323.269 149.436C320.912 151.681 318.877 153.926 317.166 156.171C315.482 158.417 312.97 162.191 309.63 167.495L294.392 191.49V207.991L301.885 217.042H275.533L275.028 215.905H299.654L293.255 207.991V191.195L308.789 166.695L311.23 162.823C315.58 155.891 319.733 150.713 323.69 147.289Z" fill="url(#paint0_linear_68_93)"/>
<path d="M12.4317 172.505V185.118C13.4777 181.094 15.0669 178.037 17.1992 175.945C19.3315 173.853 21.6046 172.807 24.0185 172.807C26.1106 172.807 27.6796 173.471 28.7257 174.798C29.7717 176.126 30.335 177.876 30.4154 180.048V185.178C31.4212 181.155 32.9903 178.097 35.1226 176.005C37.2549 173.873 39.528 172.807 41.9419 172.807C44.034 172.807 45.6231 173.491 46.7094 174.859C47.8359 176.186 48.3991 177.916 48.3991 180.048V210.705C48.3991 211.55 48.5802 212.254 48.9423 212.817C49.3446 213.34 49.9078 213.602 50.632 213.602C51.2355 213.602 51.839 213.421 52.4425 213.059C53.0862 212.657 53.6494 212.154 54.1322 211.55L55.3995 212.757C53.5488 215.734 50.9338 217.223 47.5543 217.223C45.422 217.223 43.7725 216.559 42.6057 215.231C41.439 213.904 40.8556 211.892 40.8556 209.197V181.618C40.8556 178.399 40.0711 176.79 38.5021 176.79C37.2951 176.79 36.0479 177.755 34.7605 179.686C33.5133 181.618 32.4673 184.072 31.6224 187.049C30.8177 189.986 30.4154 192.842 30.4154 195.618V215.412L22.8719 217.887V181.618C22.8719 178.399 22.1276 176.79 20.639 176.79C19.4321 176.79 18.1849 177.755 16.8975 179.686C15.61 181.618 14.5439 184.072 13.699 187.049C12.8541 189.986 12.4317 192.842 12.4317 195.618V215.412L4.94854 217.887V174.979L12.4317 172.505ZM90.0025 175.945C85.6977 176.508 81.7751 178.017 78.2346 180.471C74.6942 182.925 71.9182 186.023 69.9066 189.764C67.895 193.506 66.8892 197.489 66.8892 201.713C66.8892 205.455 67.4927 208.352 68.6997 210.404C69.9066 212.455 71.5561 213.481 73.6482 213.481C75.5793 213.481 77.43 211.952 79.2002 208.895C81.0107 205.797 82.459 201.734 83.5453 196.705C84.6315 191.676 85.1747 186.445 85.1747 181.014L92.7785 178.54V210.705C92.7785 211.55 92.9797 212.254 93.382 212.817C93.7843 213.34 94.3073 213.602 94.9511 213.602C95.5545 213.602 96.158 213.421 96.7615 213.059C97.4052 212.697 97.9483 212.194 98.3909 211.55L99.6582 212.757C97.8478 215.734 95.2528 217.223 91.8733 217.223C89.741 217.223 88.0915 216.559 86.9248 215.231C85.758 213.863 85.1747 211.852 85.1747 209.197V200.989H84.7522C83.5855 206.461 81.8354 210.564 79.502 213.3C77.1685 216.036 74.312 217.404 70.9325 217.404C67.2714 217.404 64.3747 216.157 62.2424 213.662C60.1101 211.168 59.044 207.728 59.044 203.343C59.044 198.193 60.432 193.385 63.208 188.92C66.0242 184.414 69.7859 180.793 74.4931 178.057C79.2404 175.281 84.4103 173.792 90.0025 173.591V175.945ZM125.52 172.867C129.543 172.867 132.782 173.973 135.236 176.186C137.731 178.359 138.978 181.376 138.978 185.238C138.978 187.894 138.254 190.408 136.805 192.782C135.397 195.115 133.466 197.147 131.012 198.877C128.598 200.607 125.922 201.894 122.986 202.739L129.322 210.645C130.288 211.812 131.414 212.395 132.702 212.395C134.311 212.395 136.222 211.289 138.435 209.076L139.702 210.222C138.254 212.274 136.624 214.004 134.814 215.412C133.003 216.821 131.133 217.525 129.201 217.525C127.874 217.525 126.647 217.183 125.52 216.499C124.434 215.815 123.207 214.588 121.839 212.817L114.778 203.705L115.14 202.015C117.876 201.653 120.471 200.788 122.925 199.42C125.42 198.012 127.431 196.202 128.96 193.989C130.529 191.736 131.314 189.201 131.314 186.385C131.314 183.448 130.469 181.115 128.779 179.385C127.129 177.655 124.615 176.79 121.235 176.79C118.419 176.79 115.523 177.453 112.545 178.781C109.608 180.109 106.933 181.839 104.519 183.971L102.95 182.281C105.967 179.505 109.407 177.252 113.27 175.522C117.132 173.752 121.215 172.867 125.52 172.867ZM114.175 215.412L106.873 217.947V183.73L114.175 181.316V215.412ZM176.005 172.988C174.596 174.999 172.746 176.669 170.453 177.997C168.159 179.324 165.846 179.988 163.513 179.988C162.748 180.954 162.185 181.879 161.823 182.764C161.501 183.649 161.34 184.675 161.34 185.842V205.334C161.34 208.231 160.696 210.665 159.409 212.636C158.162 214.608 156.21 216.418 153.555 218.068L152.288 216.619C153.334 215.292 153.857 213.34 153.857 210.766V189.342C153.857 187.652 154.38 186.023 155.426 184.454C156.512 182.845 157.84 181.356 159.409 179.988L151.383 179.928C150.015 179.928 148.768 180.229 147.641 180.833C146.515 181.436 145.448 182.362 144.443 183.609L143.115 182.342C145.006 179.847 146.937 177.876 148.908 176.428C150.92 174.979 153.193 174.255 155.728 174.255H164.659C166.59 174.255 168.542 174.094 170.513 173.772C172.484 173.41 173.973 172.787 174.979 171.901L176.005 172.988ZM218.248 169.427C220.099 170.755 221.467 172.304 222.352 174.074C223.237 175.804 223.68 177.655 223.68 179.626C223.68 182.563 222.915 185.721 221.386 189.101L208.774 219.033L200.627 197.067L192.057 219.033L176.306 176.367L183.548 173.652L194.652 204.369L199.118 192.903L193.868 178.6L201.109 175.884L211.61 204.912L216.619 193.084C217.866 189.946 218.49 187.371 218.49 185.359C218.49 181.537 216.659 178.137 212.998 175.16L218.248 169.427ZM258.718 175.945C254.413 176.508 250.49 178.017 246.95 180.471C243.409 182.925 240.633 186.023 238.622 189.764C236.61 193.506 235.604 197.489 235.604 201.713C235.604 205.455 236.208 208.352 237.415 210.404C238.622 212.455 240.271 213.481 242.363 213.481C244.295 213.481 246.145 211.952 247.915 208.895C249.726 205.797 251.174 201.734 252.26 196.705C253.347 191.676 253.89 186.445 253.89 181.014L261.494 178.54V210.705C261.494 211.55 261.695 212.254 262.097 212.817C262.5 213.34 263.023 213.602 263.666 213.602C264.27 213.602 264.873 213.421 265.477 213.059C266.12 212.697 266.664 212.194 267.106 211.55L268.373 212.757C266.563 215.734 263.968 217.223 260.589 217.223C258.456 217.223 256.807 216.559 255.64 215.231C254.473 213.863 253.89 211.852 253.89 209.197V200.989H253.467C252.301 206.461 250.551 210.564 248.217 213.3C245.884 216.036 243.027 217.404 239.648 217.404C235.987 217.404 233.09 216.157 230.958 213.662C228.825 211.168 227.759 207.728 227.759 203.343C227.759 198.193 229.147 193.385 231.923 188.92C234.739 184.414 238.501 180.793 243.208 178.057C247.956 175.281 253.125 173.792 258.718 173.591V175.945Z" fill="black"/>
<path d="M321.796 144.764L322.049 145.1L321.628 145.563C316.604 150.783 312.465 156.087 309.21 161.476C307.947 163.524 307.049 164.983 306.515 165.853L290.856 190.9V207.991L296.96 213.59H276.459L282.521 207.991V190.9L272.418 175.367L270.229 171.873C268.237 168.758 266.595 166.485 265.304 165.054C264.041 163.622 262.161 161.925 259.663 159.96L259.2 159.581H280.458L275.238 165.012L289.256 186.143L290.603 183.997L278.101 165.012L282.521 160.802L283.405 161.476L279.574 165.012L291.235 182.986L300.664 168.127C303.386 163.805 304.747 160.577 304.747 158.445C304.747 156.649 303.555 154.6 301.169 152.299C309.336 150.334 316.043 147.907 321.291 145.016L321.796 144.764ZM323.69 147.289V149.015L323.269 149.436C320.912 151.681 318.877 153.926 317.166 156.171C315.482 158.417 312.97 162.191 309.63 167.495L294.392 191.49V207.991L301.885 217.042H275.533L275.028 215.905H299.654L293.255 207.991V191.195L308.789 166.695L311.23 162.823C315.58 155.891 319.733 150.713 323.69 147.289Z" fill="url(#paint1_linear_68_93)"/>
<path d="M12.4317 172.505V185.118C13.4777 181.094 15.0669 178.037 17.1992 175.945C19.3315 173.853 21.6046 172.807 24.0185 172.807C26.1106 172.807 27.6796 173.471 28.7257 174.798C29.7717 176.126 30.335 177.876 30.4154 180.048V185.178C31.4212 181.155 32.9903 178.097 35.1226 176.005C37.2549 173.873 39.528 172.807 41.9419 172.807C44.034 172.807 45.6231 173.491 46.7094 174.859C47.8359 176.186 48.3991 177.916 48.3991 180.048V210.705C48.3991 211.55 48.5802 212.254 48.9423 212.817C49.3446 213.34 49.9078 213.602 50.632 213.602C51.2355 213.602 51.839 213.421 52.4425 213.059C53.0862 212.657 53.6494 212.154 54.1322 211.55L55.3995 212.757C53.5488 215.734 50.9338 217.223 47.5543 217.223C45.422 217.223 43.7725 216.559 42.6057 215.231C41.439 213.904 40.8556 211.892 40.8556 209.197V181.618C40.8556 178.399 40.0711 176.79 38.5021 176.79C37.2951 176.79 36.0479 177.755 34.7605 179.686C33.5133 181.618 32.4673 184.072 31.6224 187.049C30.8177 189.986 30.4154 192.842 30.4154 195.618V215.412L22.8719 217.887V181.618C22.8719 178.399 22.1276 176.79 20.639 176.79C19.4321 176.79 18.1849 177.755 16.8975 179.686C15.61 181.618 14.5439 184.072 13.699 187.049C12.8541 189.986 12.4317 192.842 12.4317 195.618V215.412L4.94854 217.887V174.979L12.4317 172.505ZM90.0025 175.945C85.6977 176.508 81.7751 178.017 78.2346 180.471C74.6942 182.925 71.9182 186.023 69.9066 189.764C67.895 193.506 66.8892 197.489 66.8892 201.713C66.8892 205.455 67.4927 208.352 68.6997 210.404C69.9066 212.455 71.5561 213.481 73.6482 213.481C75.5793 213.481 77.43 211.952 79.2002 208.895C81.0107 205.797 82.459 201.734 83.5453 196.705C84.6315 191.676 85.1747 186.445 85.1747 181.014L92.7785 178.54V210.705C92.7785 211.55 92.9797 212.254 93.382 212.817C93.7843 213.34 94.3073 213.602 94.9511 213.602C95.5545 213.602 96.158 213.421 96.7615 213.059C97.4052 212.697 97.9483 212.194 98.3909 211.55L99.6582 212.757C97.8478 215.734 95.2528 217.223 91.8733 217.223C89.741 217.223 88.0915 216.559 86.9248 215.231C85.758 213.863 85.1747 211.852 85.1747 209.197V200.989H84.7522C83.5855 206.461 81.8354 210.564 79.502 213.3C77.1685 216.036 74.312 217.404 70.9325 217.404C67.2714 217.404 64.3747 216.157 62.2424 213.662C60.1101 211.168 59.044 207.728 59.044 203.343C59.044 198.193 60.432 193.385 63.208 188.92C66.0242 184.414 69.7859 180.793 74.4931 178.057C79.2404 175.281 84.4103 173.792 90.0025 173.591V175.945ZM125.52 172.867C129.543 172.867 132.782 173.973 135.236 176.186C137.731 178.359 138.978 181.376 138.978 185.238C138.978 187.894 138.254 190.408 136.805 192.782C135.397 195.115 133.466 197.147 131.012 198.877C128.598 200.607 125.922 201.894 122.986 202.739L129.322 210.645C130.288 211.812 131.414 212.395 132.702 212.395C134.311 212.395 136.222 211.289 138.435 209.076L139.702 210.222C138.254 212.274 136.624 214.004 134.814 215.412C133.003 216.821 131.133 217.525 129.201 217.525C127.874 217.525 126.647 217.183 125.52 216.499C124.434 215.815 123.207 214.588 121.839 212.817L114.778 203.705L115.14 202.015C117.876 201.653 120.471 200.788 122.925 199.42C125.42 198.012 127.431 196.202 128.96 193.989C130.529 191.736 131.314 189.201 131.314 186.385C131.314 183.448 130.469 181.115 128.779 179.385C127.129 177.655 124.615 176.79 121.235 176.79C118.419 176.79 115.523 177.453 112.545 178.781C109.608 180.109 106.933 181.839 104.519 183.971L102.95 182.281C105.967 179.505 109.407 177.252 113.27 175.522C117.132 173.752 121.215 172.867 125.52 172.867ZM114.175 215.412L106.873 217.947V183.73L114.175 181.316V215.412ZM176.005 172.988C174.596 174.999 172.746 176.669 170.453 177.997C168.159 179.324 165.846 179.988 163.513 179.988C162.748 180.954 162.185 181.879 161.823 182.764C161.501 183.649 161.34 184.675 161.34 185.842V205.334C161.34 208.231 160.696 210.665 159.409 212.636C158.162 214.608 156.21 216.418 153.555 218.068L152.288 216.619C153.334 215.292 153.857 213.34 153.857 210.766V189.342C153.857 187.652 154.38 186.023 155.426 184.454C156.512 182.845 157.84 181.356 159.409 179.988L151.383 179.928C150.015 179.928 148.768 180.229 147.641 180.833C146.515 181.436 145.448 182.362 144.443 183.609L143.115 182.342C145.006 179.847 146.937 177.876 148.908 176.428C150.92 174.979 153.193 174.255 155.728 174.255H164.659C166.59 174.255 168.542 174.094 170.513 173.772C172.484 173.41 173.973 172.787 174.979 171.901L176.005 172.988ZM218.248 169.427C220.099 170.755 221.467 172.304 222.352 174.074C223.237 175.804 223.68 177.655 223.68 179.626C223.68 182.563 222.915 185.721 221.386 189.101L208.774 219.033L200.627 197.067L192.057 219.033L176.306 176.367L183.548 173.652L194.652 204.369L199.118 192.903L193.868 178.6L201.109 175.884L211.61 204.912L216.619 193.084C217.866 189.946 218.49 187.371 218.49 185.359C218.49 181.537 216.659 178.137 212.998 175.16L218.248 169.427ZM258.718 175.945C254.413 176.508 250.49 178.017 246.95 180.471C243.409 182.925 240.633 186.023 238.622 189.764C236.61 193.506 235.604 197.489 235.604 201.713C235.604 205.455 236.208 208.352 237.415 210.404C238.622 212.455 240.271 213.481 242.363 213.481C244.295 213.481 246.145 211.952 247.915 208.895C249.726 205.797 251.174 201.734 252.26 196.705C253.347 191.676 253.89 186.445 253.89 181.014L261.494 178.54V210.705C261.494 211.55 261.695 212.254 262.097 212.817C262.5 213.34 263.023 213.602 263.666 213.602C264.27 213.602 264.873 213.421 265.477 213.059C266.12 212.697 266.664 212.194 267.106 211.55L268.373 212.757C266.563 215.734 263.968 217.223 260.589 217.223C258.456 217.223 256.807 216.559 255.64 215.231C254.473 213.863 253.89 211.852 253.89 209.197V200.989H253.467C252.301 206.461 250.551 210.564 248.217 213.3C245.884 216.036 243.027 217.404 239.648 217.404C235.987 217.404 233.09 216.157 230.958 213.662C228.825 211.168 227.759 207.728 227.759 203.343C227.759 198.193 229.147 193.385 231.923 188.92C234.739 184.414 238.501 180.793 243.208 178.057C247.956 175.281 253.125 173.792 258.718 173.591V175.945Z" fill="black"/>
<rect x="106.04" y="31.8916" width="104.316" height="104.316" rx="12.4665" fill="#FCA600"/>
<circle cx="188.32" cy="42.3861" r="4.9866" fill="white"/>
<circle cx="127.234" cy="42.3861" r="4.9866" fill="white"/>
<rect x="106.04" y="31.8916" width="104.316" height="104.316" rx="12.4665" fill="#FCA600"/>
<circle cx="188.32" cy="42.3861" r="4.9866" fill="white"/>
<circle cx="127.234" cy="42.3861" r="4.9866" fill="white"/>
<g filter="url(#filter0_d_68_93)">
<path d="M141.12 62.4898V77.0642C142.329 72.4152 144.165 68.8821 146.629 66.4646C149.093 64.0472 151.72 62.8385 154.509 62.8385C156.926 62.8385 158.739 63.6055 159.948 65.1397C161.157 66.6738 161.808 68.6961 161.901 71.2065V77.1339C163.063 72.485 164.876 68.9518 167.34 66.5343C169.804 64.0704 172.431 62.8385 175.22 62.8385C177.637 62.8385 179.474 63.6288 180.729 65.2094C182.031 66.7435 182.681 68.7426 182.681 71.2065V106.631C182.681 107.608 182.891 108.421 183.309 109.072C183.774 109.676 184.425 109.979 185.262 109.979C185.959 109.979 186.656 109.769 187.354 109.351C188.097 108.886 188.748 108.305 189.306 107.608L190.771 109.002C188.632 112.442 185.61 114.163 181.705 114.163C179.241 114.163 177.335 113.396 175.987 111.861C174.639 110.327 173.965 108.003 173.965 104.888V73.0196C173.965 69.3005 173.058 67.4409 171.245 67.4409C169.85 67.4409 168.409 68.5566 166.922 70.7881C165.48 73.0196 164.272 75.8554 163.295 79.2956C162.366 82.6894 161.901 85.9901 161.901 89.1979V112.071L153.184 114.93V73.0196C153.184 69.3005 152.324 67.4409 150.604 67.4409C149.209 67.4409 147.768 68.5566 146.28 70.7881C144.793 73.0196 143.561 75.8554 142.584 79.2956C141.608 82.6894 141.12 85.9901 141.12 89.1979V112.071L132.473 114.93V65.3489L141.12 62.4898Z" fill="white"/>
</g>
<g filter="url(#filter1_d_68_93)">
<path d="M141.12 62.4898V77.0642C142.329 72.4152 144.165 68.8821 146.629 66.4646C149.093 64.0472 151.72 62.8385 154.509 62.8385C156.926 62.8385 158.739 63.6055 159.948 65.1397C161.157 66.6738 161.808 68.6961 161.901 71.2065V77.1339C163.063 72.485 164.876 68.9518 167.34 66.5343C169.804 64.0704 172.431 62.8385 175.22 62.8385C177.637 62.8385 179.474 63.6288 180.729 65.2094C182.031 66.7435 182.681 68.7426 182.681 71.2065V106.631C182.681 107.608 182.891 108.421 183.309 109.072C183.774 109.676 184.425 109.979 185.262 109.979C185.959 109.979 186.656 109.769 187.354 109.351C188.097 108.886 188.748 108.305 189.306 107.608L190.771 109.002C188.632 112.442 185.61 114.163 181.705 114.163C179.241 114.163 177.335 113.396 175.987 111.861C174.639 110.327 173.965 108.003 173.965 104.888V73.0196C173.965 69.3005 173.058 67.4409 171.245 67.4409C169.85 67.4409 168.409 68.5566 166.922 70.7881C165.48 73.0196 164.272 75.8554 163.295 79.2956C162.366 82.6894 161.901 85.9901 161.901 89.1979V112.071L153.184 114.93V73.0196C153.184 69.3005 152.324 67.4409 150.604 67.4409C149.209 67.4409 147.768 68.5566 146.28 70.7881C144.793 73.0196 143.561 75.8554 142.584 79.2956C141.608 82.6894 141.12 85.9901 141.12 89.1979V112.071L132.473 114.93V65.3489L141.12 62.4898Z" fill="white"/>
</g>
<path d="M191.117 32.2882C191.117 23.7249 187.554 15.5122 181.21 9.457C174.866 3.40179 166.263 6.46516e-07 157.292 0C148.32 -6.46516e-07 139.717 3.40178 133.373 9.457C127.03 15.5122 123.466 23.7248 123.466 32.2882L130.064 32.2882C130.064 25.3951 132.932 18.7844 138.038 13.9102C143.145 9.03606 150.07 6.29779 157.292 6.29779C164.513 6.29779 171.438 9.03606 176.545 13.9102C181.651 18.7844 184.52 25.3951 184.52 32.2882H191.117Z" fill="#FCA600"/>
<path d="M191.117 32.2882C191.117 23.7249 187.554 15.5122 181.21 9.457C174.866 3.40179 166.263 6.46516e-07 157.292 0C148.32 -6.46516e-07 139.717 3.40178 133.373 9.457C127.03 15.5122 123.466 23.7248 123.466 32.2882L130.064 32.2882C130.064 25.3951 132.932 18.7844 138.038 13.9102C143.145 9.03606 150.07 6.29779 157.292 6.29779C164.513 6.29779 171.438 9.03606 176.545 13.9102C181.651 18.7844 184.52 25.3951 184.52 32.2882H191.117Z" fill="#FCA600"/>
<path fill-rule="evenodd" clip-rule="evenodd" d="M111.214 79.7179V111.213C111.214 120.966 111.214 125.843 114.244 128.873C117.274 131.903 122.151 131.903 131.905 131.903H155.673L140.532 131.003C128.352 130.278 122.262 129.916 118.342 126.058C114.422 122.2 113.963 116.117 113.044 103.95L111.214 79.7179Z" fill="white"/>
<path fill-rule="evenodd" clip-rule="evenodd" d="M111.214 79.7179V111.213C111.214 120.966 111.214 125.843 114.244 128.873C117.274 131.903 122.151 131.903 131.905 131.903H155.673L140.532 131.003C128.352 130.278 122.262 129.916 118.342 126.058C114.422 122.2 113.963 116.117 113.044 103.95L111.214 79.7179Z" fill="white"/>
<defs>
<filter id="filter0_d_68_93" x="128.847" y="60.3442" width="62.5889" height="56.7309" filterUnits="userSpaceOnUse" color-interpolation-filters="sRGB">
<feFlood flood-opacity="0" result="BackgroundImageFix"/>
<feColorMatrix in="SourceAlpha" type="matrix" values="0 0 0 0 0 0 0 0 0 0 0 0 0 0 0 0 0 0 127 0" result="hardAlpha"/>
<feOffset dx="-1.47966"/>
<feGaussianBlur stdDeviation="1.07275"/>
<feComposite in2="hardAlpha" operator="out"/>
<feColorMatrix type="matrix" values="0 0 0 0 0 0 0 0 0 0 0 0 0 0 0 0 0 0 0.31 0"/>
<feBlend mode="normal" in2="BackgroundImageFix" result="effect1_dropShadow_68_93"/>
<feBlend mode="normal" in="SourceGraphic" in2="effect1_dropShadow_68_93" result="shape"/>
</filter>
<filter id="filter1_d_68_93" x="128.847" y="60.3442" width="62.5889" height="56.7309" filterUnits="userSpaceOnUse" color-interpolation-filters="sRGB">
<feFlood flood-opacity="0" result="BackgroundImageFix"/>
<feColorMatrix in="SourceAlpha" type="matrix" values="0 0 0 0 0 0 0 0 0 0 0 0 0 0 0 0 0 0 127 0" result="hardAlpha"/>
<feOffset dx="-1.47966"/>
<feGaussianBlur stdDeviation="1.07275"/>
<feComposite in2="hardAlpha" operator="out"/>
<feColorMatrix type="matrix" values="0 0 0 0 0 0 0 0 0 0 0 0 0 0 0 0 0 0 0.31 0"/>
<feBlend mode="normal" in2="BackgroundImageFix" result="effect1_dropShadow_68_93"/>
<feBlend mode="normal" in="SourceGraphic" in2="effect1_dropShadow_68_93" result="shape"/>
</filter>
<linearGradient id="paint0_linear_68_93" x1="289.221" y1="131.042" x2="289.221" y2="245.042" gradientUnits="userSpaceOnUse">
<stop stop-color="#FCA700"/>
</linearGradient>
<linearGradient id="paint1_linear_68_93" x1="289.221" y1="131.042" x2="289.221" y2="245.042" gradientUnits="userSpaceOnUse">
<stop stop-color="#FCA700"/>
</linearGradient>
</defs>
</svg>
