<svg width="381" height="67" viewBox="0 0 381 67" fill="none" xmlns="http://www.w3.org/2000/svg">
<path d="M0 45.8057V0.803711H34.0579V9.16122H10.4051V45.8057H0ZM9.6542 29.4657V21.1082H31.2689V29.4657H9.6542Z" fill="black"/>
<path d="M61.1433 46.6094C54.7608 46.6094 49.7728 44.8415 46.1256 41.252C42.4785 37.6626 40.7086 32.6267 40.7086 26.0371V0.857422H51.1136V25.6621C51.1136 29.948 51.9718 33.0553 53.7417 34.9303C55.5117 36.8054 57.9788 37.7697 61.1433 37.7697C64.3077 37.7697 66.7749 36.8054 68.5448 34.9303C70.3148 33.0553 71.1729 29.948 71.1729 25.6621V0.857422H81.4707V26.0371C81.4707 32.6267 79.6472 37.7162 76.0537 41.252C72.4601 44.7879 67.4721 46.6094 61.036 46.6094H61.1433Z" fill="black"/>
<path d="M91.8222 45.8057V0.803711H102.227V37.341H124.807V45.8057H91.7685H91.8222Z" fill="black"/>
<path d="M130.707 45.8057V0.803711H141.112V37.341H163.692V45.8057H130.654H130.707Z" fill="black"/>
<path d="M190.402 46.6092C186.916 46.6092 183.698 46.0199 180.694 44.8948C177.691 43.7698 175.116 42.1626 172.917 40.0196C170.718 37.9302 169.002 35.4658 167.822 32.6264C166.589 29.787 165.999 26.6797 165.999 23.3046C165.999 19.9294 166.589 16.8222 167.822 13.9828C169.056 11.1433 170.772 8.67896 172.971 6.58958C175.17 4.50021 177.745 2.89299 180.748 1.71437C183.752 0.535746 186.97 0 190.456 0C194.371 0 197.911 0.696465 201.022 2.03581C204.133 3.37515 206.814 5.35739 208.96 7.9825L202.255 14.1435C200.7 12.3755 198.984 11.0898 197.107 10.179C195.229 9.32185 193.138 8.83968 190.939 8.83968C188.847 8.83968 186.916 9.16112 185.146 9.85758C183.376 10.554 181.874 11.5184 180.587 12.8041C179.3 14.0899 178.281 15.59 177.584 17.3579C176.886 19.1258 176.511 21.0545 176.511 23.1974C176.511 25.3404 176.886 27.2691 177.584 29.037C178.281 30.8049 179.3 32.305 180.587 33.5908C181.874 34.8765 183.376 35.8409 185.146 36.5373C186.916 37.2338 188.847 37.5552 190.939 37.5552C193.191 37.5552 195.229 37.1266 197.107 36.2159C198.984 35.3587 200.7 34.0194 202.255 32.1978L208.96 38.3588C206.814 40.9839 204.186 42.9662 201.022 44.3591C197.857 45.752 194.318 46.3949 190.349 46.3949L190.402 46.6092Z" fill="black"/>
<path d="M235.294 46.609C231.754 46.609 228.429 46.0197 225.426 44.8946C222.422 43.716 219.794 42.1088 217.595 40.0194C215.396 37.93 213.68 35.4656 212.446 32.6262C211.212 29.7868 210.622 26.7331 210.622 23.358C210.622 19.9828 211.212 16.9291 212.446 14.0897C213.68 11.2503 215.396 8.78588 217.649 6.69651C219.901 4.60713 222.476 2.94634 225.479 1.82129C228.483 0.64267 231.754 0.106934 235.241 0.106934C238.727 0.106934 242.052 0.696244 245.056 1.82129C248.059 2.99992 250.634 4.60713 252.833 6.69651C255.032 8.78588 256.748 11.2503 258.035 14.0361C259.269 16.822 259.912 19.9292 259.912 23.3044C259.912 26.6795 259.269 29.7332 258.035 32.5726C256.802 35.4121 255.085 37.8764 252.833 39.9658C250.58 42.0552 248.006 43.6624 245.056 44.841C242.052 46.0196 238.834 46.5554 235.294 46.5554V46.609ZM235.241 37.7157C237.279 37.7157 239.102 37.3943 240.819 36.6978C242.535 36.0014 243.983 35.037 245.27 33.7513C246.558 32.4655 247.577 30.9654 248.274 29.1975C248.971 27.4296 249.347 25.5009 249.347 23.358C249.347 21.215 248.971 19.2863 248.274 17.5184C247.577 15.7505 246.558 14.2504 245.324 12.9646C244.037 11.6789 242.589 10.7145 240.872 10.0181C239.156 9.32162 237.279 9.00018 235.294 9.00018C233.31 9.00018 231.433 9.32162 229.716 10.0181C228 10.7145 226.552 11.6789 225.265 12.9646C223.977 14.2504 222.958 15.7505 222.261 17.5184C221.564 19.2863 221.188 21.215 221.188 23.358C221.188 25.5009 221.564 27.376 222.261 29.1975C222.958 31.019 223.977 32.5191 225.211 33.8048C226.498 35.0906 227.946 36.0549 229.663 36.7514C231.379 37.4479 233.256 37.7693 235.241 37.7693V37.7157Z" fill="black"/>
<path d="M267.743 45.8057V0.803711H276.378L295.579 32.573H291.02L309.9 0.803711H318.481L318.589 45.8057H308.827V15.8044H310.543L295.472 41.0912H290.752L275.359 15.8044H277.558V45.8057H267.797H267.743Z" fill="black"/>
<path d="M329.208 45.8057V0.803711H337.843L357.044 32.573H352.486L371.365 0.803711H379.946L380.054 45.8057H370.292V15.8044H372.008L356.937 41.0912H352.217L336.824 15.8044H339.023V45.8057H329.262H329.208Z" fill="black"/>
<path d="M20.2738 66.646L25.3154 55.3955H27.8899L32.9315 66.646H30.1962L26.0663 56.7349H27.0854L22.9555 66.646H20.2738ZM22.7946 64.2352L23.4919 62.2529H29.2844L29.9816 64.2352H22.7946Z" fill="#93278F"/>
<path d="M39.6358 63.1637V61.1279H44.1948V63.1637H39.6358Z" fill="#93278F"/>
<path d="M52.079 66.6459V64.9315L59.0515 56.5204L59.3733 57.4847H52.2399V55.3418H61.7332V57.0026L54.7608 65.4137L54.439 64.4493H61.9478V66.5923H52.079V66.6459Z" fill="#93278F"/>
<path d="M80.988 66.646V55.3955H86.5123C87.9068 55.3955 88.9795 55.6634 89.6768 56.1991C90.374 56.7349 90.7494 57.4313 90.7494 58.3421C90.7494 58.9314 90.5885 59.4671 90.3204 59.8957C90.0522 60.3243 89.6231 60.6457 89.1404 60.9136C88.6577 61.1279 88.0677 61.2886 87.4241 61.2886L87.7459 60.6457C88.4432 60.6457 89.0868 60.7529 89.6231 60.9672C90.1595 61.1815 90.5885 61.5565 90.9103 61.9851C91.2322 62.4137 91.3394 63.003 91.3394 63.6459C91.3394 64.6102 90.964 65.3602 90.2131 65.896C89.4622 66.4317 88.3359 66.6996 86.8341 66.6996H80.988V66.646ZM83.5624 64.7174H86.6196C87.3168 64.7174 87.7996 64.6102 88.175 64.3959C88.4968 64.1816 88.7113 63.8066 88.7113 63.3244C88.7113 62.8423 88.5504 62.5208 88.175 62.2529C87.7996 62.0387 87.3168 61.9315 86.6196 61.9315H83.4015V60.0564H86.1905C86.8341 60.0564 87.3168 59.9493 87.6386 59.735C87.9605 59.5207 88.1214 59.1992 88.1214 58.7171C88.1214 58.2349 87.9605 57.9671 87.6386 57.7528C87.3168 57.5385 86.8341 57.4313 86.1905 57.4313H83.6161V64.7709L83.5624 64.7174Z" fill="#93278F"/>
<path d="M104.748 66.8603C103.139 66.8603 101.905 66.4317 100.994 65.5209C100.082 64.6102 99.6528 63.378 99.6528 61.7172V55.3955H102.281V61.6101C102.281 62.6815 102.495 63.4316 102.924 63.9137C103.354 64.3959 103.997 64.6102 104.748 64.6102C105.499 64.6102 106.143 64.3959 106.625 63.9137C107.108 63.4316 107.269 62.6815 107.269 61.6101V55.3955H109.843V61.7172C109.843 63.378 109.414 64.6102 108.502 65.5209C107.591 66.4317 106.357 66.8603 104.748 66.8603Z" fill="#93278F"/>
<path d="M122.555 66.8601C121.643 66.8601 120.785 66.7529 119.98 66.4851C119.176 66.2172 118.478 65.9493 117.996 65.5207L118.908 63.5385C119.39 63.86 119.98 64.1814 120.624 64.3957C121.267 64.61 121.965 64.7172 122.608 64.7172C123.145 64.7172 123.52 64.7171 123.842 64.5564C124.164 64.4493 124.378 64.3421 124.539 64.1278C124.7 63.9671 124.754 63.7528 124.754 63.485C124.754 63.1635 124.646 62.9492 124.378 62.7885C124.164 62.6278 123.842 62.467 123.466 62.3599C123.091 62.2527 122.662 62.1456 122.179 62.0385C121.697 61.9313 121.267 61.8242 120.785 61.6634C120.302 61.5027 119.873 61.342 119.498 61.0741C119.122 60.8063 118.8 60.5384 118.532 60.1634C118.264 59.7884 118.157 59.3062 118.157 58.6633C118.157 58.0204 118.318 57.4311 118.693 56.8954C119.015 56.3596 119.551 55.931 120.248 55.6096C120.946 55.2882 121.857 55.1274 122.876 55.1274C123.574 55.1274 124.271 55.2346 124.968 55.3953C125.665 55.556 126.255 55.8239 126.792 56.1453L125.987 58.1276C125.451 57.8061 124.915 57.5918 124.432 57.4847C123.896 57.324 123.413 57.2704 122.876 57.2704C122.34 57.2704 121.965 57.324 121.643 57.4311C121.321 57.5383 121.107 57.699 120.946 57.8597C120.785 58.074 120.731 58.2883 120.731 58.5026C120.731 58.7705 120.838 59.0383 121.107 59.199C121.321 59.3598 121.643 59.5205 122.018 59.6276C122.394 59.7348 122.823 59.8419 123.306 59.9491C123.788 60.0562 124.217 60.1634 124.7 60.3241C125.183 60.4848 125.612 60.6455 125.987 60.9134C126.363 61.1277 126.685 61.4491 126.953 61.8242C127.167 62.1992 127.328 62.6813 127.328 63.2707C127.328 63.9135 127.167 64.5029 126.792 64.985C126.416 65.5208 125.88 65.9493 125.183 66.2708C124.486 66.5922 123.574 66.7529 122.501 66.7529L122.555 66.8601Z" fill="#93278F"/>
<path d="M135.534 66.646V55.3955H138.162V66.646H135.534Z" fill="#93278F"/>
<path d="M147.28 66.646V55.3955H149.426L156.076 63.4852H155.057V55.3955H157.632V66.646H155.486L148.836 58.5564H149.855V66.646H147.28Z" fill="#93278F"/>
<path d="M166.696 66.646V55.3955H175.224V57.4849H169.324V64.5566H175.438V66.646H166.696ZM169.109 61.9851V59.9493H174.526V61.9851H169.109Z" fill="#93278F"/>
<path d="M187.667 66.8601C186.755 66.8601 185.897 66.7529 185.092 66.4851C184.288 66.2172 183.591 65.9493 183.108 65.5207L184.02 63.5385C184.502 63.86 185.092 64.1814 185.736 64.3957C186.38 64.61 187.077 64.7172 187.721 64.7172C188.257 64.7172 188.632 64.7171 188.954 64.5564C189.276 64.4493 189.49 64.3421 189.651 64.1278C189.812 63.9671 189.866 63.7528 189.866 63.485C189.866 63.1635 189.759 62.9492 189.49 62.7885C189.276 62.6278 188.954 62.467 188.579 62.3599C188.203 62.2527 187.774 62.1456 187.291 62.0385C186.809 61.9313 186.38 61.8242 185.897 61.6634C185.414 61.5027 184.985 61.342 184.61 61.0741C184.234 60.8063 183.913 60.5384 183.644 60.1634C183.376 59.7884 183.269 59.3062 183.269 58.6633C183.269 58.0204 183.43 57.4311 183.805 56.8954C184.127 56.3596 184.663 55.931 185.361 55.6096C186.058 55.2882 186.97 55.1274 187.989 55.1274C188.686 55.1274 189.383 55.2346 190.08 55.3953C190.778 55.556 191.368 55.8239 191.904 56.1453L191.1 58.1276C190.563 57.8061 190.027 57.5918 189.544 57.4847C189.008 57.324 188.525 57.2704 187.989 57.2704C187.452 57.2704 187.077 57.324 186.755 57.4311C186.433 57.5383 186.219 57.699 186.058 57.8597C185.897 58.074 185.843 58.2883 185.843 58.5026C185.843 58.7705 185.951 59.0383 186.219 59.199C186.433 59.3598 186.755 59.5205 187.131 59.6276C187.506 59.7348 187.935 59.8419 188.418 59.9491C188.9 60.0562 189.33 60.1634 189.812 60.3241C190.295 60.4848 190.724 60.6455 191.1 60.9134C191.475 61.1277 191.797 61.4491 192.065 61.8242C192.279 62.1992 192.44 62.6813 192.44 63.2707C192.44 63.9135 192.279 64.5029 191.904 64.985C191.529 65.5208 190.992 65.9493 190.295 66.2708C189.598 66.5922 188.686 66.7529 187.613 66.7529L187.667 66.8601Z" fill="#93278F"/>
<path d="M204.347 66.8601C203.435 66.8601 202.577 66.7529 201.773 66.4851C200.968 66.2172 200.271 65.9493 199.788 65.5207L200.7 63.5385C201.183 63.86 201.773 64.1814 202.416 64.3957C203.06 64.61 203.757 64.7172 204.401 64.7172C204.937 64.7172 205.313 64.7171 205.634 64.5564C205.956 64.4493 206.171 64.3421 206.332 64.1278C206.493 63.9671 206.546 63.7528 206.546 63.485C206.546 63.1635 206.439 62.9492 206.171 62.7885C205.956 62.6278 205.634 62.467 205.259 62.3599C204.884 62.2527 204.454 62.1456 203.972 62.0385C203.489 61.9313 203.06 61.8242 202.577 61.6634C202.095 61.5027 201.665 61.342 201.29 61.0741C200.915 60.8063 200.593 60.5384 200.325 60.1634C200.056 59.7884 199.949 59.3062 199.949 58.6633C199.949 58.0204 200.11 57.4311 200.486 56.8954C200.807 56.3596 201.344 55.931 202.041 55.6096C202.738 55.2882 203.65 55.1274 204.669 55.1274C205.366 55.1274 206.063 55.2346 206.761 55.3953C207.458 55.556 208.048 55.8239 208.584 56.1453L207.78 58.1276C207.243 57.8061 206.707 57.5918 206.224 57.4847C205.688 57.324 205.205 57.2704 204.669 57.2704C204.133 57.2704 203.757 57.324 203.435 57.4311C203.114 57.5383 202.899 57.699 202.738 57.8597C202.577 58.074 202.524 58.2883 202.524 58.5026C202.524 58.7705 202.631 59.0383 202.899 59.199C203.114 59.3598 203.435 59.5205 203.811 59.6276C204.186 59.7348 204.615 59.8419 205.098 59.9491C205.581 60.0562 206.01 60.1634 206.493 60.3241C206.975 60.4848 207.404 60.6455 207.78 60.9134C208.155 61.1277 208.477 61.4491 208.745 61.8242C208.96 62.1992 209.121 62.6813 209.121 63.2707C209.121 63.9135 208.96 64.5029 208.584 64.985C208.209 65.5208 207.673 65.9493 206.975 66.2708C206.278 66.5922 205.366 66.7529 204.294 66.7529L204.347 66.8601Z" fill="#93278F"/>
<path d="M232.023 66.8601C231.111 66.8601 230.253 66.7529 229.448 66.4851C228.644 66.2172 227.946 65.9493 227.464 65.5207L228.375 63.5385C228.858 63.86 229.448 64.1814 230.092 64.3957C230.735 64.61 231.433 64.7172 232.076 64.7172C232.613 64.7172 232.988 64.7171 233.31 64.5564C233.632 64.4493 233.846 64.3421 234.007 64.1278C234.168 63.9671 234.222 63.7528 234.222 63.485C234.222 63.1635 234.114 62.9492 233.846 62.7885C233.632 62.6278 233.31 62.467 232.934 62.3599C232.559 62.2527 232.13 62.1456 231.647 62.0385C231.164 61.9313 230.735 61.8242 230.253 61.6634C229.77 61.5027 229.341 61.342 228.965 61.0741C228.59 60.8063 228.268 60.5384 228 60.1634C227.732 59.7884 227.625 59.3062 227.625 58.6633C227.625 58.0204 227.785 57.4311 228.161 56.8954C228.483 56.3596 229.019 55.931 229.716 55.6096C230.414 55.2882 231.325 55.1274 232.344 55.1274C233.042 55.1274 233.739 55.2346 234.436 55.3953C235.133 55.556 235.723 55.8239 236.26 56.1453L235.455 58.1276C234.919 57.8061 234.382 57.5918 233.9 57.4847C233.363 57.324 232.881 57.2704 232.344 57.2704C231.808 57.2704 231.433 57.324 231.111 57.4311C230.789 57.5383 230.574 57.699 230.414 57.8597C230.253 58.074 230.199 58.2883 230.199 58.5026C230.199 58.7705 230.306 59.0383 230.574 59.199C230.789 59.3598 231.111 59.5205 231.486 59.6276C231.862 59.7348 232.291 59.8419 232.773 59.9491C233.256 60.0562 233.685 60.1634 234.168 60.3241C234.651 60.4848 235.08 60.6455 235.455 60.9134C235.831 61.1277 236.152 61.4491 236.421 61.8242C236.635 62.1992 236.796 62.6813 236.796 63.2707C236.796 63.9135 236.635 64.5029 236.26 64.985C235.884 65.5208 235.348 65.9493 234.651 66.2708C233.953 66.5922 233.042 66.7529 231.969 66.7529L232.023 66.8601Z" fill="#93278F"/>
<path d="M250.526 66.86C249.615 66.86 248.81 66.6993 248.059 66.4314C247.308 66.1636 246.665 65.735 246.075 65.1992C245.538 64.6635 245.109 64.0742 244.788 63.3777C244.466 62.6813 244.359 61.8777 244.359 61.0741C244.359 60.2705 244.519 59.4668 244.788 58.7704C245.109 58.0739 245.538 57.431 246.075 56.9489C246.611 56.4131 247.308 56.0381 248.059 55.7167C248.81 55.4488 249.615 55.2881 250.526 55.2881C251.438 55.2881 252.243 55.4488 252.994 55.7167C253.745 55.9846 254.388 56.4131 254.924 56.9489C255.461 57.4846 255.89 58.0739 256.212 58.7704C256.534 59.4668 256.694 60.2705 256.694 61.0741C256.694 61.8777 256.534 62.6813 256.212 63.3777C255.89 64.0742 255.461 64.7171 254.924 65.1992C254.388 65.735 253.745 66.11 252.994 66.4314C252.243 66.6993 251.438 66.86 250.526 66.86ZM250.473 64.6635C250.956 64.6635 251.438 64.5564 251.867 64.3956C252.296 64.2349 252.672 63.967 252.994 63.6456C253.315 63.3242 253.584 62.9491 253.745 62.5206C253.905 62.092 254.013 61.6098 254.013 61.0741C254.013 60.5383 253.905 60.0562 253.745 59.6276C253.584 59.199 253.315 58.824 252.994 58.5025C252.672 58.1811 252.296 57.9132 251.867 57.7525C251.438 57.5918 250.956 57.4846 250.473 57.4846C249.99 57.4846 249.507 57.5918 249.078 57.7525C248.649 57.9132 248.274 58.1811 247.952 58.5025C247.63 58.824 247.362 59.199 247.201 59.6276C247.04 60.0562 246.933 60.5383 246.933 61.0741C246.933 61.6098 247.04 62.092 247.201 62.5206C247.362 62.9491 247.63 63.3242 247.952 63.6456C248.274 63.967 248.649 64.2349 249.078 64.3956C249.507 64.5564 249.99 64.6635 250.473 64.6635Z" fill="#93278F"/>
<path d="M265.061 66.646V55.3955H267.689V64.5031H273.321V66.646H265.061Z" fill="#93278F"/>
<path d="M286.086 66.8603C284.477 66.8603 283.243 66.4317 282.332 65.5209C281.42 64.6102 280.991 63.378 280.991 61.7172V55.3955H283.619V61.6101C283.619 62.6815 283.833 63.4316 284.263 63.9137C284.692 64.3959 285.335 64.6102 286.086 64.6102C286.837 64.6102 287.481 64.3959 287.963 63.9137C288.446 63.4316 288.607 62.6815 288.607 61.6101V55.3955H291.181V61.7172C291.181 63.378 290.752 64.6102 289.841 65.5209C288.929 66.4317 287.695 66.8603 286.086 66.8603Z" fill="#93278F"/>
<path d="M302.284 66.646V57.5385H298.69V55.3955H308.505V57.5385H304.912V66.646H302.284Z" fill="#93278F"/>
<path d="M316.336 66.646V55.3955H318.964V66.646H316.336Z" fill="#93278F"/>
<path d="M333.499 66.86C332.587 66.86 331.783 66.6993 331.032 66.4314C330.281 66.1636 329.637 65.735 329.047 65.1992C328.511 64.6635 328.082 64.0742 327.76 63.3777C327.438 62.6813 327.331 61.8777 327.331 61.0741C327.331 60.2705 327.492 59.4668 327.76 58.7704C328.082 58.0739 328.511 57.431 329.047 56.9489C329.584 56.4131 330.281 56.0381 331.032 55.7167C331.783 55.4488 332.587 55.2881 333.499 55.2881C334.411 55.2881 335.215 55.4488 335.966 55.7167C336.717 55.9846 337.361 56.4131 337.897 56.9489C338.433 57.4846 338.862 58.0739 339.184 58.7704C339.506 59.4668 339.667 60.2705 339.667 61.0741C339.667 61.8777 339.506 62.6813 339.184 63.3777C338.862 64.0742 338.433 64.7171 337.897 65.1992C337.361 65.735 336.717 66.11 335.966 66.4314C335.215 66.6993 334.411 66.86 333.499 66.86ZM333.499 64.6635C333.982 64.6635 334.464 64.5564 334.893 64.3956C335.322 64.2349 335.698 63.967 336.02 63.6456C336.342 63.3242 336.61 62.9491 336.771 62.5206C336.932 62.092 337.039 61.6098 337.039 61.0741C337.039 60.5383 336.932 60.0562 336.771 59.6276C336.61 59.199 336.342 58.824 336.02 58.5025C335.698 58.1811 335.322 57.9132 334.893 57.7525C334.464 57.5918 333.982 57.4846 333.499 57.4846C333.016 57.4846 332.533 57.5918 332.104 57.7525C331.675 57.9132 331.3 58.1811 330.978 58.5025C330.656 58.824 330.388 59.199 330.227 59.6276C330.066 60.0562 329.959 60.5383 329.959 61.0741C329.959 61.6098 330.066 62.092 330.227 62.5206C330.388 62.9491 330.656 63.3242 330.978 63.6456C331.3 63.967 331.675 64.2349 332.104 64.3956C332.533 64.5564 333.016 64.6635 333.499 64.6635Z" fill="#93278F"/>
<path d="M348.088 66.646V55.3955H350.233L356.884 63.4852H355.865V55.3955H358.439V66.646H356.294L349.643 58.5564H350.662V66.646H348.088Z" fill="#93278F"/>
</svg>
