<svg width="512" height="512" viewBox="0 0 512 512" fill="none" xmlns="http://www.w3.org/2000/svg">
<g clip-path="url(#clip0_513_290)">
<path d="M255.625 -0.31261C256.643 -0.310455 257.661 -0.3083 258.71 -0.306079C273.319 -0.256409 287.651 -0.00551176 302 2.99989C302.975 3.19857 303.95 3.39724 304.954 3.60194C353.336 13.7226 397.324 35.6391 433 69.9999C433.989 70.9481 433.989 70.9481 434.998 71.9154C444.486 81.0599 453.226 90.3572 461 101C461.858 102.151 462.716 103.302 463.574 104.453C469.612 112.644 474.971 121.158 480 130C480.364 130.632 480.729 131.263 481.104 131.914C502.71 169.663 512.477 212.429 512.312 255.625C512.31 256.643 512.308 257.661 512.306 258.709C512.256 273.319 512.005 287.651 509 302C508.702 303.462 508.702 303.462 508.398 304.954C498.277 353.336 476.361 397.324 442 433C441.368 433.659 440.736 434.319 440.084 434.998C430.94 444.486 421.643 453.226 411 461C409.849 461.858 408.698 462.716 407.547 463.574C399.357 469.612 390.855 474.994 382 480C381.293 480.402 380.586 480.804 379.857 481.219C356.722 494.244 331.55 502.993 305.562 508.312C304.844 508.46 304.125 508.607 303.384 508.759C288.708 511.548 274.183 512.349 259.273 512.316C256.333 512.312 253.395 512.336 250.455 512.361C237.082 512.406 224.186 511.2 211 509C209.294 508.718 209.294 508.718 207.554 508.43C164.287 500.658 123.237 480.671 90 452C89.2549 451.366 88.5099 450.731 87.7422 450.078C74.2372 438.267 61.5658 425.516 51 411C50.1435 409.85 49.2867 408.7 48.4297 407.551C42.3897 399.361 37.0063 390.856 32 382C31.5978 381.293 31.1956 380.585 30.7813 379.857C17.7558 356.721 9.007 331.55 3.68751 305.562C3.54016 304.843 3.3928 304.125 3.24098 303.384C0.267121 287.738 -0.372992 272.264 -0.312488 256.375C-0.310333 255.357 -0.308178 254.339 -0.305957 253.29C-0.256286 238.681 -0.00538969 224.349 3.00001 210C3.19869 209.025 3.39737 208.05 3.60206 207.046C13.7227 158.664 35.6392 114.676 70 78.9999C70.6321 78.3405 71.2643 77.6812 71.9155 77.0018C81.06 67.5136 90.3574 58.7737 101 50.9999C102.151 50.1418 103.302 49.2838 104.453 48.4257C112.643 42.3881 121.145 37.0053 130 31.9999C130.707 31.5977 131.414 31.1955 132.143 30.7811C155.278 17.7557 180.45 9.00688 206.438 3.68739C207.156 3.54003 207.875 3.39268 208.616 3.24086C224.262 0.266999 239.736 -0.373114 255.625 -0.31261Z" fill="#FECE00"/>
<path d="M145 64C147.995 65.7755 150.812 67.5307 153.496 69.75C154.131 70.2712 154.765 70.7924 155.419 71.3293C156.085 71.8807 156.751 72.432 157.438 73C158.858 74.1608 160.278 75.3209 161.699 76.4805C163.817 78.212 165.933 79.9448 168.045 81.6821C169.939 83.2351 171.843 84.7751 173.75 86.3125C174.322 86.7862 174.893 87.26 175.482 87.748C178.697 90.3214 179.721 91 184 91C185.767 90.0042 185.767 90.0042 187.398 88.543C188.036 88.0124 188.674 87.4817 189.331 86.9351C190.006 86.3584 190.68 85.7817 191.375 85.1875C192.804 83.9951 194.234 82.8037 195.664 81.6133C196.385 81.0095 197.106 80.4058 197.849 79.7837C201.102 77.0866 204.42 74.4762 207.75 71.875C208.322 71.4266 208.893 70.9783 209.482 70.5164C210.985 69.3399 212.492 68.1697 214 67C214.686 66.3632 215.372 65.7264 216.078 65.0703C218 64 218 64 220.254 64.4102C224.175 66.6801 227.494 69.5072 230.938 72.4375C232.45 73.7002 233.963 74.9619 235.477 76.2227C236.232 76.8545 236.988 77.4863 237.767 78.1372C241.093 80.9116 244.437 83.6604 247.813 86.375C248.38 86.8448 248.948 87.3146 249.533 87.7986C252.732 90.3538 253.742 91 258 91C259.767 90.0042 259.767 90.0042 261.398 88.543C262.036 88.0124 262.674 87.4817 263.331 86.9351C264.343 86.07 264.343 86.07 265.375 85.1875C266.804 83.9951 268.234 82.8037 269.664 81.6133C270.385 81.0095 271.106 80.4058 271.849 79.7837C275.102 77.0866 278.42 74.4762 281.75 71.875C282.607 71.2025 282.607 71.2025 283.482 70.5164C284.985 69.3399 286.492 68.1697 288 67C288.686 66.3632 289.372 65.7264 290.078 65.0703C292 64 292 64 294.379 64.5039C297.555 66.317 300.216 68.5208 302.938 70.9375C308.786 76.0133 314.796 80.8346 320.906 85.5898C323.622 87.7054 326.317 89.8429 329 92C332.834 90.3292 335.944 87.8385 339.188 85.25C339.785 84.7777 340.383 84.3054 340.999 83.8188C344.566 80.9865 348.091 78.1063 351.594 75.1953C352.358 74.5608 353.122 73.9262 353.909 73.2725C355.41 72.0223 356.908 70.7679 358.401 69.5088C359.087 68.9361 359.774 68.3635 360.48 67.7734C361.088 67.2622 361.695 66.7509 362.321 66.2241C364 65 364 65 367 64C367.389 108.604 367.689 153.208 367.868 197.813C367.889 203.083 367.911 208.352 367.934 213.622C367.941 215.195 367.941 215.195 367.947 216.8C368.021 233.773 368.155 250.744 368.312 267.715C368.471 285.138 368.565 302.56 368.6 319.983C368.623 330.73 368.696 341.473 368.835 352.219C368.925 359.594 368.952 366.967 368.93 374.343C368.919 378.595 368.935 382.843 369.027 387.095C369.575 413.87 369.575 413.87 363.358 420.979C359.93 424.124 356.266 426.52 352.189 428.738C348.579 430.819 345.457 433.481 342.25 436.125C341.154 436.985 340.055 437.842 338.953 438.695C336.286 440.777 333.637 442.88 331 445C327.138 443.322 324.014 440.796 320.75 438.188C320.148 437.712 319.546 437.236 318.926 436.746C315.486 434.018 312.082 431.251 308.699 428.453C307.989 427.868 307.278 427.282 306.546 426.679C305.165 425.539 303.79 424.393 302.419 423.241C299.083 420.485 296.206 418.3 292 417C291.007 417.811 290.015 418.622 288.992 419.457C281.049 425.934 273.065 432.351 264.988 438.66C262.311 440.756 259.651 442.871 257 445C253.138 443.322 250.014 440.796 246.75 438.188C246.148 437.712 245.546 437.236 244.926 436.746C241.486 434.018 238.082 431.251 234.699 428.453C233.989 427.868 233.278 427.282 232.546 426.679C231.165 425.539 229.79 424.393 228.419 423.241C225.083 420.485 222.206 418.3 218 417C217.007 417.811 216.015 418.622 214.992 419.457C207.049 425.934 199.065 432.351 190.988 438.66C188.311 440.756 185.651 442.871 183 445C179.881 443.574 177.403 441.854 174.75 439.688C173.881 438.982 173.012 438.277 172.117 437.551C171.078 436.701 170.039 435.85 169 435C166.992 433.361 164.983 431.722 162.974 430.085C161.61 428.974 160.247 427.86 158.886 426.745C158.24 426.218 157.595 425.691 156.93 425.148C156.083 424.455 156.083 424.455 155.218 423.748C153.135 421.99 153.135 421.99 151.067 421.012C148.553 419.558 146.859 418.246 145 416C143.798 411.34 143.953 406.694 144.038 401.915C144.034 400.458 144.027 399.001 144.017 397.544C143.999 393.543 144.031 389.545 144.071 385.544C144.106 381.23 144.094 376.915 144.088 372.6C144.084 365.125 144.109 357.651 144.154 350.177C144.219 339.37 144.24 328.563 144.25 317.756C144.268 300.223 144.321 282.69 144.396 265.157C144.47 248.125 144.527 231.093 144.561 214.061C144.564 212.486 144.564 212.486 144.567 210.88C144.577 205.613 144.587 200.346 144.597 195.079C144.68 151.386 144.821 107.693 145 64Z" fill="#E8ECF4"/>
<path d="M367 64C371.455 67.7419 375.741 71.5859 379.871 75.6832C380.418 76.2223 380.965 76.7614 381.528 77.3168C383.34 79.1035 385.148 80.8936 386.956 82.6838C388.262 83.9741 389.569 85.2642 390.876 86.5542C402.757 98.2912 414.604 110.063 426.443 121.842C435.184 130.539 443.94 139.218 452.719 147.877C458.904 153.98 465.069 160.103 471.221 166.239C474.89 169.898 478.567 173.548 482.266 177.178C485.745 180.593 489.2 184.031 492.637 187.488C493.898 188.748 495.167 189.999 496.446 191.24C504.329 198.907 508.814 204.623 510 216C510.238 217.398 510.477 218.796 510.719 220.193C512.149 232.007 512.358 243.732 512.312 255.625C512.31 256.643 512.308 257.661 512.306 258.71C512.256 273.319 512.005 287.651 509 302C508.702 303.462 508.702 303.462 508.398 304.954C498.277 353.336 476.361 397.324 442 433C441.368 433.659 440.736 434.319 440.084 434.998C430.94 444.486 421.643 453.226 411 461C409.849 461.858 408.698 462.716 407.547 463.574C399.357 469.612 390.855 474.995 382 480C381.293 480.402 380.586 480.804 379.857 481.219C356.722 494.244 331.55 502.993 305.562 508.312C304.844 508.46 304.125 508.607 303.384 508.759C297.621 509.854 291.818 510.487 285.99 511.119C282.214 511.549 278.51 512.061 274.794 512.863C262.66 515.459 249.377 516.903 238.231 510.379C223.645 500.172 211.503 486.313 199.515 473.252C194.609 467.915 189.59 462.691 184.56 457.472C174.246 446.765 164.077 435.931 154 425C154.33 424.34 154.66 423.68 155 423C155.432 423.352 155.865 423.704 156.31 424.066C164.514 430.743 172.723 437.414 181 444C184.862 442.322 187.986 439.796 191.25 437.188C192.153 436.474 192.153 436.474 193.074 435.746C196.514 433.018 199.918 430.251 203.301 427.453C204.011 426.868 204.722 426.282 205.454 425.679C206.835 424.539 208.21 423.393 209.581 422.241C216.534 416.497 216.534 416.497 220 416C222.402 417.398 224.18 418.699 226.25 420.5C226.844 420.992 227.438 421.484 228.05 421.99C229.346 423.065 230.635 424.148 231.919 425.238C234.872 427.738 237.867 430.186 240.858 432.639C243.65 434.931 246.43 437.239 249.208 439.549C251.103 441.083 253.041 442.548 255 444C258.862 442.322 261.986 439.796 265.25 437.188C266.153 436.474 266.153 436.474 267.074 435.746C270.514 433.018 273.918 430.251 277.301 427.453C278.011 426.868 278.722 426.282 279.454 425.679C280.835 424.539 282.21 423.393 283.581 422.241C286.917 419.485 289.794 417.3 294 416C294.993 416.811 295.985 417.622 297.008 418.457C304.951 424.934 312.935 431.351 321.012 437.66C323.689 439.756 326.349 441.871 329 444C332.862 442.322 335.987 439.797 339.25 437.188C339.85 436.712 340.451 436.236 341.07 435.746C346.672 431.295 352.223 426.778 357.757 422.241C358.398 421.717 359.039 421.192 359.699 420.652C360.265 420.188 360.83 419.724 361.413 419.246C362.886 418.089 364.441 417.039 366 416C366.459 413.383 366.459 413.383 366.385 410.257C366.394 409.026 366.404 407.796 366.413 406.529C366.409 405.151 366.404 403.774 366.399 402.396C366.404 400.943 366.411 399.489 366.419 398.035C366.437 394.026 366.436 390.018 366.433 386.009C366.432 381.691 366.449 377.373 366.463 373.056C366.486 365.57 366.498 358.085 366.502 350.6C366.509 339.777 366.532 328.954 366.559 318.131C366.602 300.574 366.632 283.016 366.654 265.458C366.675 248.399 366.702 231.34 366.738 214.281C366.74 213.23 366.742 212.179 366.744 211.096C366.755 205.824 366.766 200.553 366.778 195.281C366.871 151.52 366.943 107.76 367 64Z" fill="#FEA300"/>
<path d="M145 64C147.995 65.7755 150.812 67.5307 153.496 69.75C154.131 70.2712 154.765 70.7924 155.419 71.3293C156.085 71.8807 156.751 72.432 157.438 73C158.858 74.1608 160.278 75.3209 161.699 76.4805C163.817 78.212 165.933 79.9448 168.045 81.6821C169.939 83.2351 171.843 84.7751 173.75 86.3125C174.322 86.7862 174.893 87.26 175.482 87.748C178.697 90.3214 179.721 91 184 91C185.767 90.0042 185.767 90.0042 187.398 88.543C188.036 88.0124 188.674 87.4817 189.331 86.9351C190.006 86.3584 190.68 85.7817 191.375 85.1875C192.804 83.9951 194.234 82.8037 195.664 81.6133C196.385 81.0095 197.106 80.4058 197.849 79.7837C201.102 77.0866 204.42 74.4762 207.75 71.875C208.322 71.4266 208.893 70.9783 209.482 70.5164C210.985 69.3399 212.492 68.1697 214 67C214.686 66.3632 215.372 65.7264 216.078 65.0703C218 64 218 64 220.254 64.4102C224.175 66.68 227.495 69.5065 230.938 72.4375C232.447 73.7032 233.957 74.9675 235.469 76.2305C236.224 76.8626 236.98 77.4947 237.758 78.146C241.677 81.3869 245.689 84.5075 249.709 87.6228C251.915 89.3379 254.021 91.0214 256 93C256.241 95.2906 256.241 95.2906 256.227 98.1841C256.227 99.2802 256.227 100.376 256.226 101.506C256.216 102.661 256.206 103.817 256.195 105.008C256.193 106.067 256.191 107.127 256.189 108.219C256.179 112.187 256.151 116.156 256.125 120.125C256.084 128.994 256.043 137.863 256 147C229.27 147 202.54 147 175 147C175 156.9 175 166.8 175 177C201.73 177 228.46 177 256 177C256 184.92 256 192.84 256 201C229.27 201 202.54 201 175 201C175 210.9 175 220.8 175 231C201.73 231 228.46 231 256 231C256 301.29 256 371.58 256 444C251.431 442.172 248.634 440.234 245.063 437.062C240.281 432.914 235.426 428.897 230.438 425C229.563 424.316 229.563 424.316 228.67 423.617C227.117 422.407 225.559 421.203 224 420C223.31 419.361 222.621 418.721 221.91 418.062C220.002 416.728 220.002 416.728 217.621 417.504C214.445 419.317 211.784 421.521 209.063 423.938C203.214 429.013 197.204 433.835 191.094 438.59C188.378 440.705 185.683 442.843 183 445C179.881 443.574 177.403 441.854 174.75 439.688C173.881 438.982 173.012 438.277 172.117 437.551C171.078 436.701 170.039 435.85 169 435C166.992 433.361 164.983 431.722 162.974 430.085C161.61 428.974 160.247 427.86 158.886 426.745C158.24 426.218 157.595 425.691 156.93 425.148C156.083 424.455 156.083 424.455 155.218 423.748C153.135 421.99 153.135 421.99 151.067 421.012C148.553 419.558 146.859 418.246 145 416C143.798 411.34 143.953 406.694 144.038 401.915C144.034 400.458 144.027 399.001 144.017 397.544C143.999 393.543 144.031 389.545 144.071 385.544C144.106 381.23 144.094 376.915 144.088 372.6C144.084 365.125 144.109 357.651 144.154 350.177C144.219 339.37 144.24 328.563 144.25 317.756C144.268 300.223 144.321 282.69 144.396 265.157C144.47 248.125 144.527 231.093 144.561 214.061C144.564 212.486 144.564 212.486 144.567 210.88C144.577 205.613 144.587 200.346 144.597 195.079C144.68 151.386 144.821 107.693 145 64Z" fill="#FEFEFE"/>
<path d="M175 201C228.46 201 281.92 201 337 201C337 210.9 337 220.8 337 231C283.54 231 230.08 231 175 231C175 221.1 175 211.2 175 201Z" fill="#676D7B"/>
<path d="M175 147C212.95 147 250.9 147 290 147C290 156.57 290 166.14 290 176C252.05 176 214.1 176 175 176C175 166.43 175 156.86 175 147Z" fill="#636978"/>
<path d="M256 202C282.73 202 309.46 202 337 202C337 211.24 337 220.48 337 230C310.27 230 283.54 230 256 230C256 220.76 256 211.52 256 202Z" fill="#414952"/>
<path d="M175 316C196.78 316 218.56 316 241 316C241 325.9 241 335.8 241 346C219.22 346 197.44 346 175 346C175 336.1 175 326.2 175 316Z" fill="#FF6F55"/>
<path d="M175 258C196.78 258 218.56 258 241 258C241 267.57 241 277.14 241 287C219.22 287 197.44 287 175 287C175 277.43 175 267.86 175 258Z" fill="#636978"/>
<path d="M256 147C267.22 147 278.44 147 290 147C290 156.57 290 166.14 290 176C278.78 176 267.56 176 256 176C256 166.43 256 156.86 256 147Z" fill="#414952"/>
<path d="M341.16 265.552H319.4C321.533 266.917 323.197 268.496 324.392 270.288C325.587 272.037 326.44 273.957 326.952 276.048H341.16V288.208H326.888C325.907 292.176 323.944 295.696 321 298.768C318.056 301.84 314.195 304.229 309.416 305.936C310.739 306.533 311.955 307.323 313.064 308.304C314.216 309.285 315.24 310.459 316.136 311.824L339.304 346H323.752C320.851 346 318.717 344.848 317.352 342.544L297.896 312.912C297.171 311.803 296.36 311.013 295.464 310.544C294.611 310.075 293.331 309.84 291.624 309.84H279.592V298.192H292.264C297.128 298.192 301.011 297.275 303.912 295.44C306.856 293.605 308.925 291.195 310.12 288.208H279.528V276.048H310.504C309.48 272.933 307.475 270.501 304.488 268.752C301.544 266.96 297.555 266.064 292.52 266.064H279.592V253.456H341.16V265.552Z" fill="#414952"/>
</g>
<defs>
<clipPath id="clip0_513_290">
<rect width="512" height="512" fill="white"/>
</clipPath>
</defs>
</svg>
